<svg width="24" height="24" viewBox="0 0 24 24" fill="none" xmlns="http://www.w3.org/2000/svg">
<g clip-path="url(#clip0_107_8)">
<path fill-rule="evenodd" clip-rule="evenodd" d="M22.895 6.02402C22.895 5.25502 22.59 4.51702 22.046 3.97302C21.502 3.43002 20.764 3.12402 19.995 3.12402C16.165 3.12402 7.83499 3.12402 4.00499 3.12402C3.23599 3.12402 2.49798 3.43002 1.95398 3.97302C1.40998 4.51702 1.10498 5.25502 1.10498 6.02402C1.10498 9.08802 1.10498 14.912 1.10498 17.976C1.10498 18.745 1.40998 19.483 1.95398 20.027C2.49798 20.57 3.23599 20.876 4.00499 20.876C7.83499 20.876 16.165 20.876 19.995 20.876C20.764 20.876 21.502 20.57 22.046 20.027C22.59 19.483 22.895 18.745 22.895 17.976V6.02402ZM21.095 6.02402V17.976C21.095 18.268 20.979 18.548 20.773 18.754C20.567 18.96 20.287 19.076 19.995 19.076C16.165 19.076 7.83499 19.076 4.00499 19.076C3.71299 19.076 3.43299 18.96 3.22699 18.754C3.02099 18.548 2.90498 18.268 2.90498 17.976C2.90498 14.912 2.90498 9.08802 2.90498 6.02402C2.90498 5.73202 3.02099 5.45203 3.22699 5.24603C3.43299 5.04003 3.71299 4.92403 4.00499 4.92403C7.83499 4.92403 16.165 4.92403 19.995 4.92403C20.287 4.92403 20.567 5.04003 20.773 5.24603C20.979 5.45203 21.095 5.73202 21.095 6.02402ZM5.89998 8.36502V17C5.89998 17.497 5.49698 17.9 4.99998 17.9C4.50298 17.9 4.09999 17.497 4.09999 17V7.00002C4.09999 6.69702 4.25199 6.41502 4.50499 6.24902C4.75699 6.08202 5.07598 6.05402 5.35498 6.17302L12 9.02103L18.645 6.17302C18.924 6.05402 19.243 6.08202 19.495 6.24902C19.748 6.41502 19.9 6.69702 19.9 7.00002V17C19.9 17.497 19.497 17.9 19 17.9C18.503 17.9 18.1 17.497 18.1 17V8.36502L12.355 10.827C12.128 10.924 11.872 10.924 11.645 10.827L5.89998 8.36502Z" fill="white"/>
</g>
<defs>
<clipPath id="clip0_107_8">
<rect width="24" height="24" fill="white"/>
</clipPath>
</defs>
</svg>
